<svg width="510" height="510" viewBox="0 0 510 510" fill="none" xmlns="http://www.w3.org/2000/svg">
<rect width="510" height="510" rx="100" fill="#6BBCFF"/>
<g opacity="0.78" clip-path="url(#clip0_812_364)">
<g filter="url(#filter0_d_812_364)">
<path d="M248.742 131.17C248.038 129.669 246.766 128.509 245.207 127.945C243.648 127.381 241.928 127.459 240.427 128.163C238.926 128.867 237.765 130.138 237.201 131.698C236.638 133.257 236.716 134.976 237.42 136.478L237.675 137.005C218.599 149.434 209.199 163.762 205.456 177.971C201.809 191.857 203.797 204.906 206.202 214.679L206.178 214.685L206.191 214.733L200.759 226.996C199.711 229.362 199.164 231.919 199.153 234.507C199.141 237.095 199.666 239.657 200.693 242.032C201.72 244.407 203.228 246.544 205.122 248.308C207.015 250.072 209.253 251.425 211.695 252.282L334.968 295.571C350.288 300.958 366.872 301.63 382.578 297.5L416.304 288.62C420.204 287.594 423.839 285.74 426.96 283.185C430.081 280.629 432.616 277.433 434.393 273.812C436.17 270.19 437.148 266.229 437.259 262.197C437.37 258.165 436.612 254.156 435.038 250.442C429.612 237.691 415.902 231.128 403.33 230.508C395.351 230.102 387.446 228.111 381.83 223.179L328.842 170.044L330.929 169.133C331.69 168.803 332.377 168.326 332.952 167.728C333.526 167.131 333.976 166.425 334.275 165.651C334.574 164.878 334.717 164.053 334.694 163.224C334.671 162.396 334.483 161.58 334.142 160.824C333.801 160.069 333.313 159.389 332.706 158.823C332.099 158.258 331.386 157.82 330.608 157.533C329.831 157.246 329.003 157.117 328.175 157.153C327.347 157.189 326.534 157.389 325.784 157.742C322.486 159.222 319.142 160.4 315.753 161.275C290.696 167.73 264.379 157.52 251.486 136.29C250.473 134.638 249.556 132.929 248.742 131.17ZM227.021 162.767L265.652 201.728C267.986 204.08 269.291 207.264 269.279 210.578C269.267 213.892 267.939 217.066 265.587 219.401L256.641 228.284L219.243 215.213L218.839 213.678C216.401 204.419 214.445 192.964 217.551 181.146C219.096 175.233 221.99 168.991 227.03 162.752M273.792 234.265L305.01 203.295C306.177 202.14 307.56 201.226 309.08 200.605C310.6 199.984 312.227 199.669 313.869 199.677C315.511 199.685 317.135 200.017 318.649 200.653C320.162 201.289 321.536 202.217 322.691 203.384L333.303 214.085C335.636 216.439 336.94 219.624 336.925 222.939C336.911 226.254 335.58 229.428 333.226 231.762L315.882 248.957L273.792 234.265ZM376.587 273.225L424.746 260.546C425.158 267.805 420.434 274.607 413.121 276.532L379.395 285.412C366.105 288.911 352.071 288.347 339.105 283.792L215.841 240.487C215.028 240.201 214.283 239.75 213.653 239.162C213.022 238.574 212.52 237.862 212.179 237.071C211.837 236.279 211.662 235.426 211.666 234.564C211.67 233.702 211.852 232.85 212.201 232.062L214.512 226.8L343.711 271.928C354.296 275.628 365.744 276.079 376.587 273.225Z" fill="white"/>
</g>
</g>
<g filter="url(#filter1_d_812_364)">
<path d="M170.395 142.105C169.977 139.822 168.669 137.797 166.759 136.478C164.849 135.159 162.493 134.652 160.21 135.07C157.926 135.488 155.902 136.795 154.583 138.706C153.264 140.616 152.757 142.972 153.175 145.255L153.332 146.06C123.075 156.088 105.242 172.135 95.1098 190.038C85.2223 207.538 83.2623 225.913 83.0348 240H82.9998V240.07L71.2748 254.735C69.0124 257.565 67.3603 260.832 66.4225 264.332C65.4847 267.831 65.2814 271.487 65.8255 275.069C66.3697 278.651 67.6493 282.081 69.5841 285.145C71.5188 288.208 74.0667 290.837 77.0673 292.868L228.53 395.418C247.352 408.171 269.564 414.992 292.3 415H341.125C346.772 415 352.353 413.786 357.49 411.439C362.626 409.093 367.198 405.668 370.895 401.399C374.591 397.13 377.326 392.116 378.914 386.696C380.502 381.277 380.905 375.579 380.097 369.99C377.297 350.793 361.075 337.02 344.275 331.7C333.617 328.305 323.625 322.793 317.78 314.113L264.982 223.288L268.132 222.798C269.28 222.623 270.381 222.222 271.372 221.617C272.363 221.013 273.224 220.218 273.904 219.277C274.585 218.337 275.071 217.271 275.336 216.141C275.6 215.01 275.637 213.839 275.444 212.694C275.252 211.55 274.833 210.455 274.213 209.474C273.593 208.493 272.784 207.644 271.834 206.979C270.883 206.313 269.809 205.844 268.675 205.597C267.541 205.35 266.369 205.332 265.227 205.543C260.234 206.371 255.287 206.773 250.387 206.75C214.162 206.558 182.172 183.353 172.285 150.015C171.502 147.417 170.871 144.776 170.395 142.105ZM129.725 177.14L168.137 243.658C170.459 247.675 171.091 252.45 169.893 256.933C168.695 261.415 165.766 265.239 161.75 267.563L146.472 276.4L100.5 245.373V243.15C100.5 229.745 101.935 213.54 110.352 198.648C114.552 191.193 120.695 183.773 129.742 177.123M167.56 290.61L220.865 259.81C222.856 258.662 225.054 257.917 227.333 257.618C229.612 257.32 231.928 257.473 234.148 258.069C236.368 258.666 238.448 259.694 240.271 261.094C242.093 262.495 243.622 264.241 244.77 266.233L255.322 284.503C257.643 288.522 258.272 293.298 257.071 297.782C255.869 302.265 252.937 306.087 248.917 308.408L219.307 325.505L167.56 290.61ZM292.842 380H362.562C360.532 389.975 351.712 397.5 341.125 397.5H292.3C273.059 397.5 254.261 391.734 238.33 380.945L86.8848 278.378C85.8859 277.7 85.0379 276.824 84.3941 275.803C83.7503 274.782 83.3246 273.639 83.1439 272.446C82.9631 271.253 83.0311 270.035 83.3436 268.869C83.6561 267.704 84.2064 266.615 84.9598 265.673L89.9648 259.373L248.795 366.525C261.806 375.306 277.145 379.999 292.842 380Z" fill="white"/>
</g>
<defs>
<filter id="filter0_d_812_364" x="197.252" y="124.672" width="245.917" height="180.399" filterUnits="userSpaceOnUse" color-interpolation-filters="sRGB">
<feFlood flood-opacity="0" result="BackgroundImageFix"/>
<feColorMatrix in="SourceAlpha" type="matrix" values="0 0 0 0 0 0 0 0 0 0 0 0 0 0 0 0 0 0 127 0" result="hardAlpha"/>
<feOffset dx="2" dy="1"/>
<feGaussianBlur stdDeviation="1.95"/>
<feComposite in2="hardAlpha" operator="out"/>
<feColorMatrix type="matrix" values="0 0 0 0 0.466346 0 0 0 0 0.466346 0 0 0 0 0.466346 0 0 0 1 0"/>
<feBlend mode="normal" in2="BackgroundImageFix" result="effect1_dropShadow_812_364"/>
<feBlend mode="normal" in="SourceGraphic" in2="effect1_dropShadow_812_364" result="shape"/>
</filter>
<filter id="filter1_d_812_364" x="60.8278" y="127.227" width="332.375" height="297.473" filterUnits="userSpaceOnUse" color-interpolation-filters="sRGB">
<feFlood flood-opacity="0" result="BackgroundImageFix"/>
<feColorMatrix in="SourceAlpha" type="matrix" values="0 0 0 0 0 0 0 0 0 0 0 0 0 0 0 0 0 0 127 0" result="hardAlpha"/>
<feOffset dx="4" dy="1"/>
<feGaussianBlur stdDeviation="4.35"/>
<feComposite in2="hardAlpha" operator="out"/>
<feColorMatrix type="matrix" values="0 0 0 0 0.466346 0 0 0 0 0.466346 0 0 0 0 0.466346 0 0 0 0.78 0"/>
<feBlend mode="normal" in2="BackgroundImageFix" result="effect1_dropShadow_812_364"/>
<feBlend mode="normal" in="SourceGraphic" in2="effect1_dropShadow_812_364" result="shape"/>
</filter>
<clipPath id="clip0_812_364">
<rect width="250" height="250" fill="white" transform="translate(156 123.654) rotate(-14.7508)"/>
</clipPath>
</defs>
</svg>
