<svg width="34" height="34" viewBox="0 0 34 34" fill="none" xmlns="http://www.w3.org/2000/svg">
<path d="M21.165 7.35254C21.7006 6.73527 22.1089 6.01828 22.3666 5.24275C22.6243 4.46722 22.7263 3.64842 22.6667 2.83337C21.0224 2.9661 19.4962 3.73941 18.4167 4.98671C17.8997 5.58451 17.508 6.27995 17.2646 7.03187C17.0213 7.78379 16.9313 8.57689 17 9.36421C17.802 9.37089 18.5949 9.19293 19.3171 8.84409C20.0393 8.49525 20.6716 7.9849 21.165 7.35254ZM24.735 17.8925C24.7445 16.807 25.0304 15.7418 25.5658 14.7974C26.1012 13.853 26.8684 13.0607 27.795 12.495C27.2102 11.6525 26.4372 10.9577 25.5372 10.4659C24.6372 9.9741 23.6349 9.69876 22.61 9.66171C20.4 9.43504 18.36 10.9509 17.1842 10.9509C16.0083 10.9509 14.3508 9.69004 12.5092 9.71837C11.3052 9.75803 10.132 10.1091 9.10413 10.7372C8.07624 11.3654 7.22869 12.2492 6.64417 13.3025C4.15083 17.6375 6.00667 24.0834 8.5 27.5825C9.63333 29.2967 11.05 31.2375 12.92 31.1667C14.79 31.0959 15.3992 30.005 17.5667 30.005C19.7342 30.005 20.4 31.1667 22.2417 31.1242C24.0833 31.0817 25.3867 29.3675 26.5767 27.6534C27.4196 26.4089 28.0781 25.049 28.5317 23.6159C27.4089 23.1371 26.451 22.3399 25.7763 21.3227C25.1016 20.3056 24.7396 19.1131 24.735 17.8925Z" fill="white"/>
</svg>
