<svg width="32" height="18" viewBox="0 0 32 18" fill="none" xmlns="http://www.w3.org/2000/svg">
<path d="M25 10H7C6.44 10 6 9.56 6 9C6 8.44 6.44 8 7 8H25C25.56 8 26 8.44 26 9C26 9.56 25.56 10 25 10Z" fill="#9A9999"/>
<path d="M14 17C13.8688 17.0016 13.7388 16.9757 13.6183 16.9241C13.4977 16.8724 13.3893 16.7961 13.3 16.7L6.3 9.7C5.9 9.3 5.9 8.68 6.3 8.28L13.3 1.3C13.7 0.9 14.32 0.9 14.72 1.3C15.12 1.7 15.12 2.32 14.72 2.72L8.42 9.02L14.72 15.32C15.12 15.72 15.12 16.34 14.72 16.74C14.52 16.94 14.26 17.04 14.02 17.04L14 17Z" fill="#9A9999"/>
</svg>
