<svg width="26" height="26" viewBox="0 0 26 26" fill="none" xmlns="http://www.w3.org/2000/svg">
<path fill-rule="evenodd" clip-rule="evenodd" d="M16.0282 2H11.8837C10.0056 2 8.51783 2 7.35398 2.15634C6.1564 2.31779 5.1867 2.65703 4.42135 3.42135C3.65703 4.1867 3.31779 5.1564 3.15634 6.35398C3 7.51885 3 9.0056 3 10.8837V17.0719C2.99982 17.9848 3.32561 18.8679 3.91872 19.5619C4.51182 20.256 5.33325 20.7155 6.23508 20.8577C6.37507 21.6384 6.64586 22.3046 7.18742 22.8472C7.80256 23.4623 8.5771 23.726 9.49674 23.8506C10.3827 23.9691 11.5097 23.9691 12.9066 23.9691H16.0844C17.4812 23.9691 18.6083 23.9691 19.4942 23.8506C20.4139 23.726 21.1884 23.4623 21.8035 22.8472C22.4187 22.2321 22.6823 21.4575 22.807 20.5379C22.9255 19.652 22.9255 18.5249 22.9255 17.1281V11.9066C22.9255 10.5097 22.9255 9.38265 22.807 8.49674C22.6823 7.5771 22.4187 6.80256 21.8035 6.18742C21.261 5.64586 20.5947 5.37507 19.8141 5.23508C19.6719 4.33325 19.2124 3.51182 18.5183 2.91872C17.8242 2.32561 16.9412 1.99982 16.0282 2ZM18.2047 5.08692C18.0493 4.63323 17.756 4.23948 17.3657 3.9608C16.9754 3.68211 16.5078 3.53244 16.0282 3.53273H11.9409C9.99232 3.53273 8.60877 3.53478 7.55732 3.67579C6.53039 3.81373 5.93773 4.07327 5.5055 4.5055C5.07327 4.93773 4.81373 5.53039 4.67579 6.55732C4.53478 7.60877 4.53273 8.99232 4.53273 10.9409V17.0719C4.53244 17.5514 4.68211 18.0191 4.9608 18.4093C5.23948 18.7996 5.63323 19.093 6.08692 19.2483C6.06546 18.625 6.06546 17.92 6.06546 17.1281V11.9066C6.06546 10.5097 6.06546 9.38265 6.18502 8.49674C6.30763 7.5771 6.57331 6.80256 7.18742 6.18742C7.80256 5.57229 8.5771 5.30866 9.49674 5.18502C10.3827 5.06546 11.5097 5.06546 12.9066 5.06546H16.0844C16.8763 5.06546 17.5814 5.06546 18.2047 5.08692ZM8.27055 7.2726C8.5536 6.98955 8.95006 6.80562 9.7011 6.70446C10.4716 6.60126 11.4954 6.59922 12.9617 6.59922H16.0272C17.4935 6.59922 18.5163 6.60126 19.2888 6.70446C20.0389 6.80562 20.4353 6.99057 20.7184 7.2726C21.0014 7.55564 21.1853 7.95211 21.2865 8.70314C21.3897 9.4736 21.3918 10.4975 21.3918 11.9638V17.0729C21.3918 18.5392 21.3897 19.562 21.2865 20.3345C21.1853 21.0845 21.0004 21.481 20.7184 21.7641C20.4353 22.0471 20.0389 22.231 19.2878 22.3322C18.5163 22.4354 17.4935 22.4374 16.0272 22.4374H12.9617C11.4954 22.4374 10.4716 22.4354 9.70008 22.3322C8.95006 22.231 8.5536 22.0461 8.27055 21.7641C7.98751 21.481 7.80358 21.0845 7.70242 20.3335C7.59922 19.562 7.59717 18.5392 7.59717 17.0729V11.9638C7.59717 10.4975 7.59922 9.4736 7.70242 8.70212C7.80358 7.95211 7.98853 7.55564 8.27055 7.2726Z" fill="black"/>
</svg>
