<svg width="24" height="22" viewBox="0 0 24 22" fill="none" xmlns="http://www.w3.org/2000/svg">
<path d="M17 8.25004V6.41671C17 5.20113 16.4732 4.03534 15.5355 3.1758C14.5979 2.31626 13.3261 1.83337 12 1.83337C10.6739 1.83337 9.40215 2.31626 8.46447 3.1758C7.52678 4.03534 7 5.20113 7 6.41671V8.25004C6.20435 8.25004 5.44129 8.53977 4.87868 9.0555C4.31607 9.57122 4 10.2707 4 11V17.4167C4 18.1461 4.31607 18.8455 4.87868 19.3613C5.44129 19.877 6.20435 20.1667 7 20.1667H17C17.7956 20.1667 18.5587 19.877 19.1213 19.3613C19.6839 18.8455 20 18.1461 20 17.4167V11C20 10.2707 19.6839 9.57122 19.1213 9.0555C18.5587 8.53977 17.7956 8.25004 17 8.25004ZM9 6.41671C9 5.68736 9.31607 4.98789 9.87868 4.47216C10.4413 3.95644 11.2044 3.66671 12 3.66671C12.7956 3.66671 13.5587 3.95644 14.1213 4.47216C14.6839 4.98789 15 5.68736 15 6.41671V8.25004H9V6.41671ZM18 17.4167C18 17.6598 17.8946 17.893 17.7071 18.0649C17.5196 18.2368 17.2652 18.3334 17 18.3334H7C6.73478 18.3334 6.48043 18.2368 6.29289 18.0649C6.10536 17.893 6 17.6598 6 17.4167V11C6 10.7569 6.10536 10.5238 6.29289 10.3519C6.48043 10.18 6.73478 10.0834 7 10.0834H17C17.2652 10.0834 17.5196 10.18 17.7071 10.3519C17.8946 10.5238 18 10.7569 18 11V17.4167Z" fill="#FA6161"/>
</svg>
