<svg width="24" height="24" viewBox="0 0 24 24" fill="none" xmlns="http://www.w3.org/2000/svg">
<path fill-rule="evenodd" clip-rule="evenodd" d="M8.35301 4.81999C7.51501 4.38199 6.28401 4.18799 5.44701 4.59799C5.20501 4.71699 5.09401 4.87499 5.01901 5.12599C4.93801 5.39599 4.92101 5.68699 4.89901 6.08399L4.88901 6.25099L4.91901 6.83799C5.01729 8.8122 5.53044 10.7436 6.42502 12.5062C7.31961 14.2688 8.57555 15.8232 10.111 17.068L11.041 17.822C12.1541 18.7235 13.4643 19.3494 14.865 19.649L15.079 19.694C15.459 19.776 15.731 19.834 15.999 19.824C16.239 19.817 16.413 19.756 16.592 19.544C16.93 19.142 17.169 18.601 17.27 18.036C17.37 17.482 17.323 16.984 17.186 16.637C17.1415 16.5534 17.0792 16.4805 17.0035 16.4235C16.9279 16.3665 16.8407 16.3268 16.748 16.307L15.99 16.15L14.418 15.855C14.3657 15.8773 14.3164 15.9058 14.271 15.94L14.261 15.948C14.2195 15.9868 14.1792 16.0269 14.14 16.068C14.128 16.0787 14.1157 16.091 14.103 16.105L14.099 16.109C13.9398 16.2803 13.7574 16.4284 13.557 16.549C13.012 16.859 12.431 16.809 11.953 16.645C11.253 16.406 10.758 15.897 10.441 15.562L9.54501 14.615C9.02879 14.0697 8.55727 13.4839 8.13501 12.863L7.94501 12.583C7.89568 12.5117 7.83568 12.4277 7.76501 12.331C7.54201 12.02 7.23801 11.596 7.04401 11.202L6.93801 10.979C6.38801 9.77099 7.08201 8.56599 8.06201 8.09099C8.13191 8.05688 8.19178 8.00523 8.23577 7.94109C8.27976 7.87694 8.30637 7.80249 8.31301 7.72499L8.44601 6.09499L8.50501 5.14199C8.50863 5.08003 8.49661 5.01816 8.47004 4.96206C8.44348 4.90597 8.40323 4.85645 8.35301 4.81999ZM14.658 20.628L14.45 21.605C12.7402 21.24 11.1408 20.4762 9.78201 19.376L8.85201 18.622C7.09782 17.2003 5.66292 15.425 4.64082 13.4116C3.61872 11.3983 3.03238 9.19213 2.92001 6.93699L2.88501 6.23999L2.88901 6.18399L2.89801 6.01599C2.91801 5.63299 2.94701 5.07099 3.10201 4.55299C3.30201 3.88499 3.72301 3.21499 4.56701 2.80099C6.19401 2.00599 8.13301 2.44899 9.28001 3.04899C9.67206 3.2655 9.99474 3.58866 10.2107 3.98104C10.4266 4.37341 10.5269 4.81894 10.5 5.26599L10.44 6.23899L10.305 7.88699C10.2703 8.31108 10.1256 8.71881 9.88542 9.07003C9.6452 9.42124 9.31764 9.70384 8.93501 9.88999C8.85932 9.92356 8.79752 9.98218 8.76001 10.056C8.75137 10.0719 8.74723 10.0899 8.74801 10.108C8.74668 10.1167 8.75001 10.13 8.75801 10.148C8.78468 10.208 8.81134 10.2647 8.83801 10.318C8.95401 10.552 9.10301 10.76 9.29101 11.022C9.38401 11.151 9.48601 11.292 9.59801 11.457L9.78801 11.737C10.1504 12.2693 10.555 12.7716 10.998 13.239L11.894 14.186C12.218 14.529 12.416 14.689 12.599 14.752L12.621 14.758L12.669 14.71L12.694 14.684C12.776 14.598 12.935 14.432 13.127 14.298C13.467 14.061 14.042 13.748 14.758 13.883L16.378 14.187L17.155 14.348C17.955 14.515 18.628 15.042 18.99 15.771L19.004 15.799L19.016 15.828C19.348 16.614 19.392 17.535 19.239 18.388C19.085 19.248 18.715 20.126 18.121 20.832C17.514 21.552 16.765 21.8 16.065 21.822C15.527 21.84 14.98 21.72 14.613 21.64L14.454 21.606L14.658 20.626V20.628Z" fill="#9A9999"/>
</svg>
