<svg width="20" height="20" viewBox="0 0 20 20" fill="none" xmlns="http://www.w3.org/2000/svg">
<path d="M10.1442 9C10.0541 8.99098 9.94596 8.99098 9.84687 9C7.7027 8.92785 6 7.16911 6 5.00451C6 2.79481 7.78378 1 10 1C12.2072 1 14 2.79481 14 5.00451C13.991 7.16911 12.2883 8.92785 10.1442 9Z" stroke="#808080" stroke-width="1.5" stroke-linecap="round" stroke-linejoin="round"/>
<path d="M3.39516 12.2734C0.201615 13.7765 0.201615 16.2259 3.39516 17.7196C7.02418 19.4268 12.9758 19.4268 16.6048 17.7196C19.7984 16.2166 19.7984 13.7672 16.6048 12.2734C12.989 10.5755 7.03738 10.5755 3.39516 12.2734Z" stroke="#808080" stroke-width="1.5" stroke-linecap="round" stroke-linejoin="round"/>
</svg>
