<svg width="32" height="32" viewBox="0 0 32 32" fill="none" xmlns="http://www.w3.org/2000/svg">
<path d="M16 2.66675C8.63602 2.66675 2.66669 8.63608 2.66669 16.0001C2.66669 23.3641 8.63602 29.3334 16 29.3334C23.364 29.3334 29.3334 23.3641 29.3334 16.0001C29.3334 8.63608 23.364 2.66675 16 2.66675Z" stroke="#9A9999" stroke-width="2.5" stroke-linecap="round" stroke-linejoin="round"/>
<path d="M5.6947 24.4613C5.6947 24.4613 8.6667 20.6667 16 20.6667C23.3334 20.6667 26.3067 24.4613 26.3067 24.4613M16 16C17.0609 16 18.0783 15.5786 18.8285 14.8284C19.5786 14.0783 20 13.0609 20 12C20 10.9391 19.5786 9.92172 18.8285 9.17157C18.0783 8.42143 17.0609 8 16 8C14.9392 8 13.9218 8.42143 13.1716 9.17157C12.4215 9.92172 12 10.9391 12 12C12 13.0609 12.4215 14.0783 13.1716 14.8284C13.9218 15.5786 14.9392 16 16 16Z" stroke="#9A9999" stroke-width="2.5" stroke-linecap="round" stroke-linejoin="round"/>
</svg>
