<svg width="33" height="33" viewBox="0 0 33 33" fill="none" xmlns="http://www.w3.org/2000/svg">
<path d="M26.1294 6.67864C26.0079 6.55314 25.863 6.45281 25.7027 6.38341C25.5425 6.31401 25.3701 6.27689 25.1955 6.27418C25.0209 6.27147 24.8475 6.30322 24.6852 6.36762C24.5229 6.43202 24.3748 6.5278 24.2496 6.64947L9.50625 20.9291L9.6219 13.4767C9.63328 12.7434 9.04266 12.1342 8.30941 12.1228C7.57617 12.1114 6.96693 12.702 6.95555 13.4353L6.79005 24.1007C6.77867 24.8339 7.36929 25.4431 8.10253 25.4545L18.7679 25.62C19.5012 25.6314 20.1104 25.0408 20.1218 24.3075C20.1332 23.5743 19.5425 22.9651 18.8093 22.9537L11.3569 22.838L26.1004 8.54508C26.6149 8.04634 26.6281 7.19311 26.1294 6.67864Z" fill="white"/>
</svg>
