<svg width="32" height="32" viewBox="0 0 32 32" fill="none" xmlns="http://www.w3.org/2000/svg">
<path d="M13.6897 23.8683C15.9129 23.8683 17.9888 23.1451 19.6763 21.9397L26.0245 28.2879C26.3191 28.5826 26.7075 28.7299 27.1094 28.7299C27.9799 28.7299 28.6094 28.0603 28.6094 27.2031C28.6094 26.8013 28.4755 26.4263 28.1807 26.1317L21.8727 19.8102C23.1986 18.0692 23.9888 15.9129 23.9888 13.5692C23.9888 7.90399 19.3549 3.27005 13.6897 3.27005C8.01114 3.27005 3.39062 7.90399 3.39062 13.5692C3.39062 19.2343 8.01114 23.8683 13.6897 23.8683ZM13.6897 21.6451C9.25668 21.6451 5.61382 17.9888 5.61382 13.5692C5.61382 9.14953 9.25668 5.49331 13.6897 5.49331C18.1094 5.49331 21.7656 9.14953 21.7656 13.5692C21.7656 17.9888 18.1094 21.6451 13.6897 21.6451Z" fill="#CAC8C8"/>
</svg>
