<svg width="25" height="25" viewBox="0 0 25 25" fill="none" xmlns="http://www.w3.org/2000/svg">
<path d="M4.81423 19.3997C4.90443 19.4947 5.01248 19.5709 5.13219 19.6241C5.25189 19.6772 5.3809 19.7062 5.51183 19.7094C5.64276 19.7126 5.77303 19.69 5.8952 19.6428C6.01737 19.5956 6.12904 19.5248 6.2238 19.4344L17.3778 8.82525L17.2405 14.4136C17.227 14.9634 17.6658 15.4243 18.2156 15.4378C18.7655 15.4513 19.2264 15.0125 19.2399 14.4627L19.4364 6.46511C19.45 5.91528 19.0112 5.45436 18.4613 5.44084L10.4637 5.24428C9.9139 5.23077 9.45298 5.66958 9.43947 6.21941C9.42595 6.76924 9.86476 7.23016 10.4146 7.24368L16.0029 7.38103L4.84862 18.0002C4.4594 18.3707 4.44368 19.0105 4.81423 19.3997Z" fill="white"/>
</svg>
