<svg width="29" height="33" viewBox="0 0 29 33" fill="none" xmlns="http://www.w3.org/2000/svg">
<path d="M20.5417 12.375V11C20.5417 8.40675 20.5417 7.1115 19.8336 6.30575C19.1255 5.5 17.9872 5.5 15.7083 5.5H13.2917C11.0127 5.5 9.8745 5.5 9.16641 6.30575C8.45833 7.1115 8.45833 8.40675 8.45833 11V12.375M3.77 18.6175C3.41958 15.7121 3.24679 14.2588 3.96937 13.3169C4.69075 12.375 5.98004 12.375 8.55741 12.375H20.4414C23.02 12.375 24.308 12.375 25.0306 13.3169C25.7532 14.2588 25.5792 15.7121 25.2312 18.6175L24.7358 22.7425C24.4651 25.0113 24.3286 26.1442 23.6459 26.8221C22.9632 27.5 21.9578 27.5 19.9484 27.5H9.05162C7.04096 27.5 6.03562 27.5 5.35291 26.8221C4.669 26.1429 4.53366 25.0099 4.26179 22.7439L3.76758 18.6189L3.77 18.6175Z" stroke="white" stroke-width="2"/>
</svg>
