<svg width="32" height="32" viewBox="0 0 32 32" fill="none" xmlns="http://www.w3.org/2000/svg">
<path d="M20.535 11.3208C21.1366 11.9181 22.1116 11.9181 22.7132 11.3208C23.3146 10.7236 23.3146 9.75521 22.7132 9.15795C22.1116 8.56071 21.1366 8.56071 20.535 9.15795C19.9336 9.75521 19.9336 10.7236 20.535 11.3208Z" fill="white"/>
<path d="M5.07191 14.6593C3.49947 16.222 3.49947 18.7558 5.07193 20.3186L11.6916 26.8974C13.264 28.46 15.8134 28.46 17.3859 26.8974L26.7642 17.5768C27.5122 16.8334 27.9358 15.8273 27.9434 14.7761L27.9924 8.03056C28.0086 5.80272 26.191 3.99074 23.9492 4.00004L17.4211 4.02714C16.359 4.03154 15.3417 4.4528 14.5907 5.19916L5.07191 14.6593ZM6.49551 18.9037C5.70927 18.1223 5.70927 16.8555 6.49549 16.0741L16.0143 6.61396C16.3898 6.24078 16.8984 6.03016 17.4295 6.02794L23.9576 6.00086C25.0786 5.9962 25.9874 6.9022 25.9792 8.01612L25.9302 14.7616C25.9264 15.2873 25.7146 15.7903 25.3406 16.162L15.9623 25.4826C15.1761 26.264 13.9014 26.264 13.1151 25.4826L6.49551 18.9037Z" fill="white"/>
</svg>
