<svg width="15" height="15" viewBox="0 0 15 15" fill="none" xmlns="http://www.w3.org/2000/svg">
<path d="M3.50003 12C3.36742 12 3.24024 11.9473 3.14647 11.8536C3.05271 11.7598 3.00003 11.6326 3.00003 11.5V6L3.01003 5.898C3.0331 5.78499 3.09452 5.68344 3.1839 5.61054C3.27327 5.53764 3.3851 5.49788 3.50044 5.498C3.61577 5.49811 3.72752 5.5381 3.81675 5.61118C3.90598 5.68427 3.96719 5.78595 3.99003 5.899L4.00003 6L4.00003 10.293L10.647 3.646C10.7413 3.55492 10.8676 3.50452 10.9987 3.50566C11.1298 3.5068 11.2552 3.55939 11.3479 3.65209C11.4406 3.7448 11.4932 3.8702 11.4944 4.0013C11.4955 4.1324 11.4451 4.2587 11.354 4.353L4.70703 11H9.00003C9.13264 11 9.25981 11.0527 9.35358 11.1464C9.44735 11.2402 9.50003 11.3674 9.50003 11.5C9.50003 11.6326 9.44735 11.7598 9.35358 11.8536C9.25981 11.9473 9.13264 12 9.00003 12L3.50003 12Z" fill="black"/>
</svg>
