<svg width="15" height="15" viewBox="0 0 15 15" fill="none" xmlns="http://www.w3.org/2000/svg">
<path d="M11.5 3C11.6326 3 11.7598 3.05268 11.8535 3.14645C11.9473 3.24021 12 3.36739 12 3.5V9L11.99 9.102C11.9669 9.21501 11.9055 9.31656 11.8161 9.38946C11.7267 9.46236 11.6149 9.50212 11.4996 9.502C11.3842 9.50189 11.2725 9.4619 11.1833 9.38882C11.094 9.31573 11.0328 9.21405 11.01 9.101L11 9V4.707L4.35297 11.354C4.25867 11.4451 4.13237 11.4955 4.00127 11.4943C3.87017 11.4932 3.74477 11.4406 3.65206 11.3479C3.55936 11.2552 3.50677 11.1298 3.50563 10.9987C3.50449 10.8676 3.55489 10.7413 3.64597 10.647L10.293 4H5.99997C5.86736 4 5.74019 3.94732 5.64642 3.85355C5.55265 3.75979 5.49997 3.63261 5.49997 3.5C5.49997 3.36739 5.55265 3.24021 5.64642 3.14645C5.74019 3.05268 5.86736 3 5.99997 3H11.5Z" fill="black"/>
</svg>
