<svg width="30" height="30" viewBox="0 0 30 30" fill="none" xmlns="http://www.w3.org/2000/svg">
<path d="M22.6175 14.005L21.4825 14.5288L22.6175 14.0037V14.005ZM21.25 10.625V13.47H23.75V10.625H21.25ZM8.74999 13.47V10.625H6.24999V13.47H8.74999ZM7.08749 17.625L8.51749 14.5275L6.24749 13.48L4.81749 16.5787L7.08749 17.625ZM21.4825 14.5275L22.9125 17.6262L25.1825 16.5775L23.7525 13.48L21.4825 14.5275ZM20.995 20.6238H15V23.1238H20.9937L20.995 20.6238ZM15 20.6238L9.00624 20.625V23.125L15 23.1238V20.6238ZM22.9125 17.6262C23.1675 18.18 23.3375 18.5487 23.4525 18.8363C23.5675 19.1238 23.585 19.2325 23.5875 19.2663L26.0787 19.05C26.0335 18.6571 25.9307 18.273 25.7737 17.91C25.588 17.4613 25.3908 17.0162 25.1825 16.5775L22.9125 17.6262ZM20.9937 23.1238C21.575 23.1238 22.0612 23.125 22.45 23.105C22.8453 23.0952 23.2369 23.0274 23.6125 22.9037L22.7662 20.5513C22.7337 20.5637 22.6287 20.5925 22.3187 20.6087C22.01 20.625 21.6025 20.625 20.9937 20.625V23.1238ZM23.5875 19.2663C23.6116 19.541 23.5441 19.8161 23.3955 20.0485C23.247 20.2809 23.0257 20.4577 22.7662 20.5513L23.6137 22.9025C24.3922 22.6221 25.0561 22.0933 25.5019 21.3963C25.9478 20.6992 26.1506 19.8743 26.0787 19.05L23.5875 19.2663ZM4.81749 16.5787C4.60918 17.0174 4.41203 17.4613 4.22624 17.91C4.06928 18.273 3.96651 18.6571 3.92124 19.05L6.41249 19.2663C6.41499 19.2325 6.43249 19.1238 6.54749 18.8363C6.66249 18.5487 6.83249 18.1788 7.08749 17.625L4.81749 16.5787ZM9.00624 20.625C8.39874 20.625 7.98999 20.625 7.68124 20.6087C7.37124 20.5925 7.26624 20.5625 7.23374 20.5513L6.38624 22.9025C6.76499 23.0387 7.16124 23.0837 7.54874 23.1038C7.93874 23.125 8.42374 23.125 9.00624 23.125V20.625ZM3.92124 19.05C3.84939 19.8743 4.05219 20.6992 4.49804 21.3963C4.94389 22.0933 5.60777 22.6221 6.38624 22.9025L7.23374 20.5513C6.97426 20.4577 6.753 20.2809 6.60446 20.0485C6.45591 19.8161 6.38842 19.541 6.41249 19.2663L3.92124 19.05ZM6.24999 13.47C6.24999 13.4738 6.24999 13.4763 6.24749 13.48L8.51749 14.5288C8.66999 14.1962 8.74999 13.835 8.74999 13.47H6.24999ZM21.25 13.47C21.25 13.835 21.33 14.1962 21.4825 14.5288L23.7525 13.48C23.7507 13.4761 23.7498 13.4731 23.75 13.4688H21.25V13.47ZM15 4.375C16.6576 4.375 18.2473 5.03348 19.4194 6.20558C20.5915 7.37769 21.25 8.9674 21.25 10.625H23.75C23.75 8.30436 22.8281 6.07876 21.1872 4.43782C19.5462 2.79687 17.3206 1.875 15 1.875V4.375ZM15 1.875C12.6793 1.875 10.4538 2.79687 8.81281 4.43782C7.17187 6.07876 6.24999 8.30436 6.24999 10.625H8.74999C8.74999 8.9674 9.40847 7.37769 10.5806 6.20558C11.7527 5.03348 13.3424 4.375 15 4.375V1.875ZM11.455 25.0175C11.2908 24.9851 11.1219 24.986 10.958 25.0201C10.7942 25.0542 10.6389 25.1208 10.5014 25.2161C10.3638 25.3113 10.2467 25.4332 10.1571 25.5745C10.0675 25.7158 10.0072 25.8737 9.97978 26.0387C9.95233 26.2038 9.95829 26.3727 9.99732 26.5354C10.0363 26.6981 10.1076 26.8513 10.207 26.9859C10.3063 27.1206 10.4317 27.2339 10.5756 27.3192C10.7196 27.4045 10.8792 27.46 11.045 27.4825L11.455 25.0175ZM18.955 27.4825C19.1208 27.46 19.2804 27.4045 19.4244 27.3192C19.5683 27.2339 19.6937 27.1206 19.793 26.9859C19.8923 26.8513 19.9636 26.6981 20.0027 26.5354C20.0417 26.3727 20.0477 26.2038 20.0202 26.0387C19.9928 25.8737 19.9324 25.7158 19.8428 25.5745C19.7533 25.4332 19.6362 25.3113 19.4986 25.2161C19.3611 25.1208 19.2058 25.0542 19.0419 25.0201C18.8781 24.986 18.7091 24.9851 18.545 25.0175L18.955 27.4825ZM11.045 27.4825L11.9175 27.6287L12.3287 25.1625L11.455 25.0175L11.045 27.4825ZM18.0825 27.6287L18.955 27.4825L18.545 25.0175L17.6712 25.1625L18.0825 27.6287ZM11.9175 27.6287C13.9587 27.9688 16.0425 27.9688 18.0825 27.6287L17.6712 25.1625C15.9025 25.4575 14.0962 25.4575 12.3287 25.1625L11.9175 27.6287Z" fill="white"/>
</svg>
