<svg width="32" height="32" viewBox="0 0 32 32" fill="none" xmlns="http://www.w3.org/2000/svg">
<path d="M5 9H23.3867C23.7592 9.00001 24.1277 9.07809 24.4682 9.22921C24.8087 9.38032 25.1138 9.60111 25.3638 9.87735C25.6138 10.1536 25.8031 10.4791 25.9196 10.833C26.0361 11.1869 26.0771 11.5613 26.04 11.932L25.24 19.932C25.1742 20.59 24.8663 21.2001 24.376 21.6438C23.8856 22.0876 23.248 22.3333 22.5867 22.3333H9.85333C9.23663 22.3336 8.6389 22.1201 8.16193 21.7291C7.68495 21.3382 7.35821 20.7941 7.23733 20.1893L5 9Z" stroke="#9A9999" stroke-width="2" stroke-linejoin="round"/>
<path d="M6.66663 9.33333L5.58663 5.00933C5.5144 4.721 5.3479 4.46508 5.11357 4.28221C4.87924 4.09934 4.59053 4.00001 4.29329 4H2.66663M10.6666 28H13.3333M21.3333 28H24" stroke="#9A9999" stroke-width="2" stroke-linecap="round" stroke-linejoin="round"/>
</svg>
