<svg width="32" height="32" viewBox="0 0 32 32" fill="none" xmlns="http://www.w3.org/2000/svg">
<path d="M16 26.6667C18.829 26.6667 21.5421 25.5429 23.5425 23.5426C25.5429 21.5422 26.6667 18.8291 26.6667 16.0001C26.6667 13.1711 25.5429 10.458 23.5425 8.45761C21.5421 6.45722 18.829 5.33341 16 5.33341C13.171 5.33341 10.4579 6.45722 8.45755 8.45761C6.45716 10.458 5.33335 13.1711 5.33335 16.0001C5.33335 18.8291 6.45716 21.5422 8.45755 23.5426C10.4579 25.5429 13.171 26.6667 16 26.6667ZM16 2.66675C17.751 2.66675 19.4848 3.01162 21.1025 3.68169C22.7201 4.35175 24.19 5.33388 25.4281 6.57199C26.6662 7.81011 27.6484 9.27996 28.3184 10.8976C28.9885 12.5153 29.3334 14.2491 29.3334 16.0001C29.3334 19.5363 27.9286 22.9277 25.4281 25.4282C22.9276 27.9287 19.5362 29.3334 16 29.3334C8.62669 29.3334 2.66669 23.3334 2.66669 16.0001C2.66669 12.4639 4.07144 9.07248 6.57193 6.57199C9.07241 4.07151 12.4638 2.66675 16 2.66675ZM16.6667 9.33341V16.3334L22.6667 19.8934L21.6667 21.5334L14.6667 17.3334V9.33341H16.6667Z" fill="#9A9999"/>
</svg>
