<svg width="24" height="24" viewBox="0 0 24 24" fill="none" xmlns="http://www.w3.org/2000/svg">
<path d="M12.9417 5.27159L11.1637 3.10853C11.0627 2.9856 10.9169 2.90784 10.7585 2.89237C10.6002 2.87689 10.4421 2.92497 10.3192 3.02601L3.52103 8.61393C3.46016 8.66396 3.40974 8.72549 3.37265 8.79501C3.33556 8.86453 3.31253 8.94067 3.30486 9.01909C3.2972 9.09751 3.30506 9.17667 3.32799 9.25205C3.35092 9.32744 3.38847 9.39756 3.43851 9.45843L5.21648 11.6215C5.26651 11.6824 5.32804 11.7328 5.39756 11.7699C5.46708 11.807 5.54322 11.83 5.62164 11.8377C5.70006 11.8453 5.77922 11.8375 5.85461 11.8145C5.92999 11.7916 6.00012 11.754 6.06099 11.704L12.8592 6.11609C12.9821 6.01505 13.0599 5.86931 13.0753 5.71093C13.0908 5.55256 13.0427 5.39452 12.9417 5.27159ZM20.5616 14.5418L18.7836 12.3788C18.6825 12.2558 18.5368 12.1781 18.3784 12.1626C18.2201 12.1471 18.062 12.1952 17.9391 12.2963L11.1409 17.8842C11.08 17.9342 11.0296 17.9957 10.9925 18.0653C10.9554 18.1348 10.9324 18.2109 10.9247 18.2893C10.9171 18.3678 10.9249 18.4469 10.9479 18.5223C10.9708 18.5977 11.0084 18.6678 11.0584 18.7287L12.8364 20.8917C12.8864 20.9526 12.9479 21.003 13.0174 21.0401C13.087 21.0772 13.1631 21.1002 13.2415 21.1079C13.3199 21.1156 13.3991 21.1077 13.4745 21.0848C13.5499 21.0618 13.62 21.0243 13.6809 20.9743L20.479 15.3863C20.602 15.2853 20.6797 15.1395 20.6952 14.9812C20.7107 14.8228 20.6626 14.6648 20.5616 14.5418Z" stroke="#9A9999" stroke-width="1.5" stroke-linecap="round" stroke-linejoin="round"/>
<path d="M9.46013 8.91002L14.5401 15.0902M3.16115 5.02636L6.86925 1.97841C6.99218 1.87736 7.15022 1.82929 7.3086 1.84476C7.46697 1.86024 7.61271 1.93799 7.71376 2.06092L8.85674 3.45146C8.95779 3.57439 9.00586 3.73243 8.99038 3.8908C8.97491 4.04918 8.89715 4.19492 8.77422 4.29597L5.06613 7.34392C4.94319 7.44497 4.78516 7.49304 4.62678 7.47756C4.46841 7.46209 4.32267 7.38433 4.22162 7.2614L3.07864 5.87087C2.97759 5.74793 2.92952 5.5899 2.94499 5.43152C2.96047 5.27315 3.03822 5.1274 3.16115 5.02636ZM17.1309 22.0218L20.839 18.9739C20.962 18.8728 21.0397 18.7271 21.0552 18.5687C21.0707 18.4103 21.0226 18.2523 20.9216 18.1293L19.7786 16.7388C19.6775 16.6159 19.5318 16.5381 19.3734 16.5226C19.215 16.5072 19.057 16.5552 18.9341 16.6563L15.226 19.7042C15.103 19.8053 15.0253 19.951 15.0098 20.1094C14.9943 20.2678 15.0424 20.4258 15.1435 20.5487L16.2864 21.9393C16.3875 22.0622 16.5332 22.14 16.6916 22.1554C16.85 22.1709 17.008 22.1228 17.1309 22.0218Z" stroke="#9A9999" stroke-width="1.5" stroke-linecap="round" stroke-linejoin="round"/>
</svg>
