<svg width="16" height="16" viewBox="0 0 16 16" fill="none" xmlns="http://www.w3.org/2000/svg">
<g clip-path="url(#clip0_849_318)">
<path d="M9.4999 0.649994H6.4999C3.5749 1.24999 1.2499 3.54999 0.649902 6.49999V9.49999C1.2499 12.45 3.5749 14.75 6.4999 15.35H9.4999C12.4499 14.75 14.7499 12.425 15.3499 9.49999V6.49999C14.7499 3.54999 12.4249 1.24999 9.4999 0.649994Z" fill="white"/>
<path d="M15.2948 9.75C15.4317 9.17676 15.5006 8.58938 15.5 8C15.5 7.3975 15.429 6.8115 15.2948 6.25H9.75V0.705254C9.17676 0.568315 8.58938 0.499423 8 0.500004C7.3975 0.500004 6.8115 0.571004 6.25 0.705254V6.25H0.705254C0.568315 6.82325 0.499423 7.41063 0.500004 8C0.500004 8.6025 0.571004 9.1885 0.705254 9.75H6.25V15.2948C6.82325 15.4317 7.41063 15.5006 8 15.5C8.6025 15.5 9.1885 15.429 9.75 15.2948V9.75H15.2948Z" fill="#CE1124"/>
</g>
<defs>
<clipPath id="clip0_849_318">
<rect width="16" height="16" fill="white"/>
</clipPath>
</defs>
</svg>
