<svg width="16" height="16" viewBox="0 0 16 16" fill="none" xmlns="http://www.w3.org/2000/svg">
<path d="M15.4594 2.45312C10.475 1.29374 5.49063 3.87499 0.503125 2.71249C0.225 2.64999 0 2.80937 0 3.08749V12.9125C0 13.1906 0.225 13.4812 0.503125 13.5469C5.4875 14.7062 10.4719 12.125 15.4594 13.2875C15.7375 13.3531 15.9625 13.1937 15.9625 12.9156V3.09062C15.9625 2.80937 15.7375 2.51874 15.4594 2.45312Z" fill="#0B67B2"/>
<path d="M15.9625 3.08749C15.9625 2.80937 15.7375 2.51874 15.4594 2.45312C15.4281 2.44687 15.3938 2.43749 15.3625 2.43124L9.80937 5.81249V2.33749C8.59062 2.48437 7.37187 2.68437 6.15312 2.83124V5.77499L1.40625 2.88437C1.10625 2.84062 0.80625 2.78437 0.503125 2.71249C0.225 2.64999 0 2.80937 0 3.08749V3.73749L4 6.17187H0V9.82812H4.18437L0 12.375V12.9125C0 13.1906 0.225 13.4812 0.503125 13.5469C0.596875 13.5687 0.690625 13.5875 0.78125 13.6062L6.15 10.3344V13.6594C7.36875 13.5125 8.5875 13.3125 9.80625 13.1656V10.2937L14.3969 13.0937C14.75 13.1406 15.1031 13.2031 15.4563 13.2875C15.7344 13.3531 15.9594 13.1937 15.9594 12.9156V12.3406L11.8375 9.83124H15.9594V6.17499H12.0219L15.9594 3.77812C15.9625 3.54374 15.9625 3.31562 15.9625 3.08749Z" fill="#FF473E"/>
<path d="M12.9031 10.1094L15.9625 11.9719V12.7031L11.7031 10.1094H10.1L15.2344 13.2375C14.7156 13.1281 14.1938 13.0594 13.675 13.0188L10.0906 10.8375V13.1375C9.90312 13.1594 9.71562 13.1813 9.52812 13.2063V9.55001H15.9625V10.1125H12.9031V10.1094ZM5.87187 13.6969C6.05937 13.675 6.24687 13.6531 6.43437 13.6281V9.54688H0V10.1094H3.12188L0 12.0094V12.7406L4.32188 10.1094H5.87187V10.1406L0.365625 13.4938C0.409375 13.5156 0.45625 13.5344 0.503125 13.5469C0.75 13.6031 0.996875 13.6531 1.24375 13.6938L5.87187 10.875V13.6969ZM0 5.89063V6.45313H6.43437V2.79688C6.24687 2.82188 6.05937 2.84376 5.87187 2.86563V5.24063L2.14687 2.97188C1.60937 2.92501 1.07188 2.84688 0.534375 2.72188L5.7375 5.89063H4.13438L0 3.37188V4.10313L2.9375 5.89063H0ZM10.0906 2.30313C9.90312 2.32501 9.71562 2.34688 9.52812 2.37188V6.45313H15.9625V5.89063H13.0875L15.9625 4.14063V3.40938L11.8875 5.89063H10.2844L15.7125 2.58438C15.6375 2.52188 15.5531 2.47501 15.4594 2.45313C15.275 2.40938 15.0938 2.37501 14.9094 2.34063L10.0906 5.27501V2.30313Z" fill="#E8E8E8"/>
</svg>
