<svg width="18" height="18" viewBox="0 0 18 18" fill="none" xmlns="http://www.w3.org/2000/svg">
<path d="M13.5042 8.15C13.3317 7.925 13.1217 7.73 12.9267 7.535C12.4242 7.085 11.8542 6.7625 11.3742 6.29C10.2567 5.195 10.0092 3.3875 10.7217 2C10.0092 2.1725 9.38669 2.5625 8.85419 2.99C6.91169 4.55 6.14669 7.3025 7.06169 9.665C7.09169 9.74 7.12169 9.815 7.12169 9.9125C7.12169 10.0775 7.00919 10.2275 6.85919 10.2875C6.68669 10.3625 6.50669 10.3175 6.36419 10.1975C6.32163 10.1618 6.28603 10.1186 6.25919 10.07C5.41169 8.9975 5.27669 7.46 5.84669 6.23C4.59419 7.25 3.91169 8.975 4.00919 10.6025C4.05419 10.9775 4.09919 11.3525 4.22669 11.7275C4.33169 12.1775 4.53419 12.6275 4.75919 13.025C5.56919 14.3225 6.97169 15.2525 8.47919 15.44C10.0842 15.6425 11.8017 15.35 13.0317 14.24C14.4042 12.995 14.8842 11 14.1792 9.29L14.0817 9.095C13.9242 8.75 13.5042 8.15 13.5042 8.15ZM11.1342 12.875C10.9242 13.055 10.5792 13.25 10.3092 13.325C9.46919 13.625 8.62919 13.205 8.13419 12.71C9.02669 12.5 9.55919 11.84 9.71669 11.1725C9.84419 10.5725 9.60419 10.0775 9.50669 9.5C9.41669 8.945 9.43169 8.4725 9.63419 7.955C9.77669 8.24 9.92669 8.525 10.1067 8.75C10.6842 9.5 11.5917 9.83 11.7867 10.85C11.8167 10.955 11.8317 11.06 11.8317 11.1725C11.8542 11.7875 11.5842 12.4625 11.1342 12.875Z" fill="#D5D5D5"/>
</svg>
