<svg width="17" height="17" viewBox="0 0 17 17" fill="none" xmlns="http://www.w3.org/2000/svg">
<path d="M6.34566 6.47457L10.5038 10.6327M2.1875 8.55365C2.1875 9.37274 2.34883 10.1838 2.66228 10.9405C2.97573 11.6973 3.43516 12.3849 4.01435 12.964C4.59353 13.5432 5.28112 14.0027 6.03785 14.3161C6.79459 14.6296 7.60566 14.7909 8.42475 14.7909C9.24383 14.7909 10.0549 14.6296 10.8116 14.3161C11.5684 14.0027 12.256 13.5432 12.8351 12.964C13.4143 12.3849 13.8738 11.6973 14.1872 10.9405C14.5007 10.1838 14.662 9.37274 14.662 8.55365C14.662 7.73456 14.5007 6.9235 14.1872 6.16676C13.8738 5.41002 13.4143 4.72243 12.8351 4.14325C12.256 3.56407 11.5684 3.10464 10.8116 2.79119C10.0549 2.47774 9.24383 2.31641 8.42475 2.31641C7.60566 2.31641 6.79459 2.47774 6.03785 2.79119C5.28112 3.10464 4.59353 3.56407 4.01435 4.14325C3.43516 4.72243 2.97573 5.41002 2.66228 6.16676C2.34883 6.9235 2.1875 7.73456 2.1875 8.55365Z" stroke="#FA6161" stroke-width="2" stroke-linecap="round" stroke-linejoin="round"/>
</svg>
