<svg width="25" height="25" viewBox="0 0 25 25" fill="none" xmlns="http://www.w3.org/2000/svg">
<g clip-path="url(#clip0_16_451)">
<path d="M24.9868 12.7339C24.9868 11.7097 24.9017 10.9622 24.7177 10.1871H12.749V14.81H19.7743C19.6328 15.9589 18.8679 17.689 17.1682 18.8516L17.1443 19.0064L20.9286 21.8712L21.1908 21.8968C23.5987 19.7237 24.9868 16.5264 24.9868 12.7339Z" fill="#4285F4"/>
<path d="M12.749 24.9141C16.1908 24.9141 19.0803 23.8067 21.1908 21.8967L17.1682 18.8516C16.0917 19.5852 14.6469 20.0973 12.749 20.0973C9.37795 20.0973 6.51682 17.9243 5.49691 14.9208L5.34741 14.9332L1.41247 17.909L1.36101 18.0488C3.45728 22.1181 7.76318 24.9141 12.749 24.9141Z" fill="#34A853"/>
<path d="M5.49691 14.9208C5.22779 14.1457 5.07205 13.3152 5.07205 12.457C5.07205 11.5988 5.22779 10.7684 5.48275 9.99331L5.47562 9.82823L1.49136 6.80457L1.361 6.86516C0.497031 8.5538 0.00128174 10.4501 0.00128174 12.457C0.00128174 14.464 0.497031 16.3602 1.361 18.0488L5.49691 14.9208Z" fill="#FBBC05"/>
<path d="M12.749 4.8167C15.1427 4.8167 16.7574 5.8271 17.6781 6.67147L21.2757 3.23884C19.0662 1.23187 16.1908 0 12.749 0C7.76318 0 3.45728 2.7959 1.36101 6.86517L5.48275 9.99332C6.51682 6.98979 9.37795 4.8167 12.749 4.8167Z" fill="#EB4335"/>
</g>
<defs>
<clipPath id="clip0_16_451">
<rect width="25" height="25" fill="white"/>
</clipPath>
</defs>
</svg>
