<svg width="100" height="100" viewBox="0 0 100 100" fill="none" xmlns="http://www.w3.org/2000/svg">
<path d="M29 41.8333C29 36.308 31.1949 31.009 35.1019 27.1019C39.009 23.1949 44.308 21 49.8333 21C55.3587 21 60.6577 23.1949 64.5647 27.1019C68.4717 31.009 70.6667 36.308 70.6667 41.8333C70.6667 47.3587 68.4717 52.6577 64.5647 56.5647C60.6577 60.4717 55.3587 62.6667 49.8333 62.6667C44.308 62.6667 39.009 60.4717 35.1019 56.5647C31.1949 52.6577 29 47.3587 29 41.8333Z" fill="#F4D62F"/>
<path fill-rule="evenodd" clip-rule="evenodd" d="M15.7249 36.9875C16.418 28.6115 20.2342 20.802 26.4165 15.1083C32.5987 9.41458 40.6953 6.25274 49.0999 6.25H50.8999C59.3046 6.25274 67.4012 9.41458 73.5834 15.1083C79.7657 20.802 83.5819 28.6115 84.2749 36.9875C85.044 46.3392 82.1569 55.6248 76.2208 62.8917L56.2499 87.3167C55.493 88.2431 54.5396 88.9897 53.4586 89.5024C52.3777 90.0151 51.1963 90.2811 49.9999 90.2811C48.8036 90.2811 47.6222 90.0151 46.5413 89.5024C45.4603 88.9897 44.5069 88.2431 43.7499 87.3167L23.7833 62.8917C17.8456 55.6254 14.957 46.3398 15.7249 36.9875ZM49.9999 21.875C44.7509 21.875 39.7168 23.9602 36.0051 27.6718C32.2935 31.3835 30.2083 36.4176 30.2083 41.6667C30.2083 46.9157 32.2935 51.9498 36.0051 55.6615C39.7168 59.3731 44.7509 61.4583 49.9999 61.4583C55.249 61.4583 60.2831 59.3731 63.9948 55.6615C67.7064 51.9498 69.7916 46.9157 69.7916 41.6667C69.7916 36.4176 67.7064 31.3835 63.9948 27.6718C60.2831 23.9602 55.249 21.875 49.9999 21.875Z" fill="#F4D62F"/>
<path d="M49.6875 52.9823L45.2 59.3125M44.4208 46.8104L37.5271 50.3573M42.5864 38.9802L34.8364 38.9812M44.5187 31.1875L37.6208 27.6479M49.9291 25.0344L45.4666 18.6875" stroke="white" stroke-linecap="round"/>
<path d="M50.8251 43.6824L53.8168 42.3282C48.4959 39.3907 50.7074 28.8855 61.1636 25.5887C59.2483 25.3436 57.3027 25.5094 55.4565 26.075C53.6102 26.6406 51.9056 27.5931 50.4562 28.8689C49.0067 30.1447 47.8457 31.7147 47.0504 33.4742C46.2551 35.2338 45.8438 37.1426 45.8438 39.0736C45.8438 41.0045 46.2551 42.9133 47.0504 44.6729C47.8457 46.4324 49.0067 48.0024 50.4562 49.2782C51.9056 50.554 53.6102 51.5065 55.4565 52.0721C57.3027 52.6377 59.2483 52.8035 61.1636 52.5584C57.2459 51.1897 52.8418 49.7012 50.8251 43.6824Z" fill="white" stroke="white" stroke-linecap="round" stroke-linejoin="round"/>
</svg>
