<svg width="21" height="26" viewBox="0 0 21 26" fill="none" xmlns="http://www.w3.org/2000/svg">
<g clip-path="url(#clip0_605_1031)">
<path d="M10.74 0H9.88C8.23 0 0 0.6 0 9.29C0 15.65 6.18 22 9.14 25L9.9 25.78C9.95062 25.8387 10.0137 25.8852 10.0846 25.9164C10.1556 25.9475 10.2326 25.9624 10.31 25.96C10.3871 25.9604 10.4635 25.9446 10.5341 25.9136C10.6048 25.8826 10.6681 25.8371 10.72 25.78L11.47 25C14.47 21.95 20.61 15.61 20.61 9.25C20.61 0.6 12.39 0 10.74 0Z" fill="#404041"/>
<path d="M7.85995 11C7.87674 10.9941 7.8914 10.9833 7.90208 10.9691C7.91276 10.9548 7.91898 10.9378 7.91995 10.92C7.91963 10.9008 7.91381 10.8821 7.90317 10.8662C7.89253 10.8502 7.87753 10.8376 7.85995 10.83C7.21704 10.6042 6.54132 10.486 5.85995 10.48C5.17846 10.4847 4.50253 10.603 3.85995 10.83C3.84154 10.8365 3.82574 10.8487 3.81492 10.865C3.8041 10.8812 3.79884 10.9005 3.79995 10.92C3.79937 10.9381 3.805 10.956 3.81591 10.9705C3.82681 10.9851 3.84235 10.9954 3.85995 11C4.50107 11.2325 5.17796 11.351 5.85995 11.35C6.54183 11.3498 7.21852 11.2313 7.85995 11Z" fill="#FFCC04"/>
<path d="M10.49 5.99991H10.54C10.5514 5.98572 10.5576 5.96809 10.5576 5.94991C10.5576 5.93174 10.5514 5.9141 10.54 5.89991C10.3724 5.25094 10.0951 4.63541 9.72001 4.07991C9.36218 3.5246 8.91242 3.03426 8.39001 2.62991C8.37521 2.62002 8.35781 2.61475 8.34001 2.61475C8.32221 2.61475 8.30481 2.62002 8.29001 2.62991C8.28123 2.64512 8.27661 2.66236 8.27661 2.67991C8.27661 2.69747 8.28123 2.71471 8.29001 2.72991C8.4618 3.37914 8.74245 3.99453 9.12001 4.54991C9.49029 5.10812 9.95369 5.59858 10.49 5.99991Z" fill="#FFCC04"/>
<path d="M6.60994 7.54001C7.21612 7.84821 7.86768 8.05752 8.53994 8.16001C8.55851 8.16001 8.57672 8.15484 8.59252 8.14507C8.60831 8.13531 8.62108 8.12134 8.62939 8.10473C8.63769 8.08812 8.64121 8.06952 8.63954 8.05103C8.63787 8.03253 8.63109 8.01486 8.61994 8.00001C8.1531 7.50166 7.60539 7.08581 6.99994 6.77001C6.39655 6.45701 5.74361 6.25064 5.06994 6.16001C5.05626 6.15211 5.04074 6.14795 5.02494 6.14795C5.00914 6.14795 4.99362 6.15211 4.97994 6.16001C4.96778 6.17576 4.96118 6.1951 4.96118 6.21501C4.96118 6.23491 4.96778 6.25425 4.97994 6.27001C5.44167 6.78878 5.99402 7.21914 6.60994 7.54001Z" fill="#FFCC04"/>
<path d="M14.7201 15.8699C13.8009 15.7567 12.9298 15.3953 12.2004 14.8245C11.4711 14.2537 10.9109 13.495 10.5801 12.6299C10.9894 12.5573 11.3802 12.4044 11.7301 12.1799C11.738 12.1663 11.7421 12.1507 11.7421 12.1349C11.7421 12.1191 11.738 12.1036 11.7301 12.0899C11.7329 12.0736 11.7317 12.0569 11.7264 12.0412C11.7212 12.0255 11.7121 12.0113 11.7001 11.9999C11.6401 11.9999 10.2201 11.5299 10.3101 10.2299C10.4659 9.12534 10.9831 8.10341 11.7809 7.3237C12.5787 6.54399 13.6122 6.05039 14.7201 5.91995C14.744 5.91995 14.7668 5.91047 14.7837 5.89359C14.8006 5.87671 14.8101 5.85382 14.8101 5.82995C14.8101 5.80608 14.8006 5.78319 14.7837 5.76631C14.7668 5.74943 14.744 5.73995 14.7201 5.73995C14.4816 5.70627 14.241 5.68956 14.0001 5.68995C12.6006 5.69729 11.259 6.2497 10.2601 7.22995C9.76852 7.7099 9.37879 8.28405 9.11418 8.91807C8.84958 9.55208 8.71554 10.2329 8.72008 10.9199C8.73853 12.3054 9.30391 13.6273 10.293 14.5977C11.282 15.568 12.6146 16.108 14.0001 16.0999C14.241 16.1029 14.4818 16.0862 14.7201 16.0499C14.744 16.0499 14.7668 16.0405 14.7837 16.0236C14.8006 16.0067 14.8101 15.9838 14.8101 15.9599C14.8101 15.9361 14.8006 15.9132 14.7837 15.8963C14.7668 15.8794 14.744 15.8699 14.7201 15.8699Z" fill="#FFCC04"/>
<path d="M10.49 15.8101C9.38321 16.5952 8.58976 17.7464 8.24997 19.0601C8.24119 19.0753 8.23657 19.0925 8.23657 19.1101C8.23657 19.1276 8.24119 19.1449 8.24997 19.1601H8.29997H8.34997C8.90574 18.773 9.38683 18.2886 9.76997 17.7301C10.147 17.1757 10.4245 16.5598 10.59 15.9101C10.6013 15.8959 10.6075 15.8783 10.6075 15.8601C10.6075 15.8419 10.6013 15.8243 10.59 15.8101C10.5752 15.8002 10.5578 15.7949 10.54 15.7949C10.5222 15.7949 10.5048 15.8002 10.49 15.8101Z" fill="#FFCC04"/>
<path d="M8.61997 13.79C8.63133 13.7758 8.63752 13.7581 8.63752 13.74C8.63752 13.7218 8.63133 13.7042 8.61997 13.69C8.60736 13.6794 8.59143 13.6736 8.57497 13.6736C8.55851 13.6736 8.54258 13.6794 8.52997 13.69C7.8563 13.7806 7.20336 13.987 6.59997 14.3C6.00109 14.5956 5.45937 14.9952 4.99997 15.48C4.98861 15.4942 4.98242 15.5118 4.98242 15.53C4.98242 15.5481 4.98861 15.5658 4.99997 15.58C4.99997 15.58 4.99997 15.63 5.07997 15.63C5.75144 15.5319 6.40096 15.3188 6.99997 15C7.60633 14.6941 8.15457 14.2846 8.61997 13.79Z" fill="#FFCC04"/>
</g>
<defs>
<clipPath id="clip0_605_1031">
<rect width="20.61" height="26" fill="white"/>
</clipPath>
</defs>
</svg>
