<svg width="32" height="33" viewBox="0 0 32 33" fill="none" xmlns="http://www.w3.org/2000/svg">
<path d="M2.66667 8.24339C2.66667 7.48765 3.26075 6.875 3.99359 6.875H14.6731C15.4059 6.875 16 7.48765 16 8.24339C16 8.99913 15.4059 9.61179 14.6731 9.61179H3.99359C3.26075 9.61179 2.66667 8.99913 2.66667 8.24339Z" fill="white"/>
<path d="M2.66667 16.4997C2.66667 15.7439 3.26075 15.1313 3.99359 15.1313H28.0064C28.7392 15.1313 29.3333 15.7439 29.3333 16.4997C29.3333 17.2554 28.7392 17.868 28.0064 17.868H3.99359C3.26075 17.868 2.66667 17.2554 2.66667 16.4997Z" fill="white"/>
<path d="M3.99359 23.3882C3.26075 23.3882 2.66667 24.0009 2.66667 24.7566C2.66667 25.5123 3.26075 26.125 3.99359 26.125H20.0064C20.7392 26.125 21.3333 25.5123 21.3333 24.7566C21.3333 24.0009 20.7392 23.3882 20.0064 23.3882H3.99359Z" fill="white"/>
</svg>
