<svg width="24" height="24" viewBox="0 0 24 24" fill="none" xmlns="http://www.w3.org/2000/svg">
<path d="M18.1667 22C17.3875 22 16.7207 21.7205 16.1663 21.1614C15.6119 20.6024 15.3343 19.9295 15.3333 19.1429V4.85714C15.3333 4.07143 15.611 3.39905 16.1663 2.84C16.7217 2.28095 17.3884 2.00095 18.1667 2C18.9449 1.99905 19.6121 2.27905 20.1684 2.84C20.7247 3.40095 21.0019 4.07334 21 4.85714V19.1429C21 19.9286 20.7228 20.6014 20.1684 21.1614C19.614 21.7214 18.9468 22.0009 18.1667 22ZM6.83333 22C6.05417 22 5.38739 21.7205 4.833 21.1614C4.27861 20.6024 4.00094 19.9295 4 19.1429V4.85714C4 4.07143 4.27767 3.39905 4.833 2.84C5.38833 2.28095 6.05511 2.00095 6.83333 2C7.61155 1.99905 8.2788 2.27905 8.83508 2.84C9.39136 3.40095 9.66855 4.07334 9.66666 4.85714V19.1429C9.66666 19.9286 9.38947 20.6014 8.83508 21.1614C8.28069 21.7214 7.61344 22.0009 6.83333 22Z" fill="black"/>
</svg>
