<svg width="24" height="24" viewBox="0 0 24 24" fill="none" xmlns="http://www.w3.org/2000/svg">
<path d="M8.89111 15.107L15.1101 8.89001M9.92711 8.37001H9.93711M13.0261 15.624H13.0361M14.0801 3.90201C14.3576 4.19876 14.6953 4.43277 15.0706 4.58834C15.4459 4.7439 15.8501 4.81744 16.2561 4.80401C16.6458 4.79077 17.034 4.85775 17.3967 5.00082C17.7594 5.14388 18.0888 5.35996 18.3645 5.63565C18.6402 5.91134 18.8562 6.24075 18.9993 6.60344C19.1424 6.96613 19.2093 7.35435 19.1961 7.74401C19.1826 8.14997 19.2559 8.55414 19.4113 8.92943C19.5667 9.30472 19.8005 9.64246 20.0971 9.92001C20.3821 10.1864 20.6093 10.5084 20.7646 10.8662C20.92 11.224 21.0001 11.6099 21.0001 12C21.0001 12.3901 20.92 12.776 20.7646 13.1338C20.6093 13.4916 20.3821 13.8137 20.0971 14.08C19.8007 14.3574 19.5669 14.695 19.4115 15.0701C19.2561 15.4452 19.1827 15.8492 19.1961 16.255C19.2096 16.6447 19.1429 17.0331 18.9999 17.3959C18.8569 17.7587 18.6409 18.0883 18.3651 18.364C18.0894 18.6398 17.7598 18.8559 17.397 18.9988C17.0342 19.1418 16.6458 19.2085 16.2561 19.195C15.8501 19.1816 15.4459 19.2551 15.0706 19.4107C14.6953 19.5663 14.3576 19.8003 14.0801 20.097C13.8138 20.382 13.4917 20.6092 13.1339 20.7645C12.7761 20.9199 12.3902 21 12.0001 21C11.61 21 11.2241 20.9199 10.8663 20.7645C10.5085 20.6092 10.1865 20.382 9.92011 20.097C9.64265 19.8003 9.30495 19.5663 8.92966 19.4107C8.55436 19.2551 8.15014 19.1816 7.74411 19.195C7.35445 19.2083 6.96622 19.1413 6.60354 18.9982C6.24085 18.8551 5.91144 18.6391 5.63575 18.3634C5.36006 18.0877 5.14397 17.7583 5.00091 17.3956C4.85785 17.0329 4.79086 16.6447 4.80411 16.255C4.81766 15.849 4.74428 15.4449 4.58889 15.0696C4.4335 14.6943 4.19968 14.3566 3.90311 14.079C3.61852 13.8124 3.39166 13.4903 3.23657 13.1325C3.08148 12.7747 3.00146 12.389 3.00146 11.999C3.00146 11.6091 3.08148 11.2233 3.23657 10.8655C3.39166 10.5077 3.61852 10.1856 3.90311 9.91901C4.19968 9.64146 4.4335 9.30372 4.58889 8.92843C4.74428 8.55314 4.81766 8.14897 4.80411 7.74301C4.79085 7.35326 4.85787 6.96495 5.00099 6.6022C5.14412 6.23944 5.36029 5.90998 5.63609 5.63427C5.91188 5.35857 6.24142 5.14251 6.60423 4.99951C6.96703 4.85651 7.35537 4.78963 7.74511 4.80301C8.15107 4.81657 8.55524 4.74319 8.93053 4.58779C9.30582 4.4324 9.64356 4.19858 9.92111 3.90201C10.1874 3.61719 10.5094 3.39011 10.8672 3.23486C11.2249 3.07962 11.6107 2.99951 12.0006 2.99951C12.3906 2.99951 12.7763 3.07962 13.1341 3.23486C13.4918 3.39011 13.8138 3.61719 14.0801 3.90201Z" stroke="black" stroke-width="2" stroke-linecap="round" stroke-linejoin="round"/>
</svg>
