<svg width="24" height="24" viewBox="0 0 24 24" fill="none" xmlns="http://www.w3.org/2000/svg">
<path fill-rule="evenodd" clip-rule="evenodd" d="M5 14.9968C5.19891 14.9968 5.38968 15.0758 5.53033 15.2165C5.67098 15.3571 5.75 15.5479 5.75 15.7468V17.9998C5.75 18.1378 5.862 18.2498 6 18.2498H18C18.0663 18.2498 18.1299 18.2235 18.1768 18.1766C18.2237 18.1297 18.25 18.0661 18.25 17.9998V15.7468C18.25 15.5479 18.329 15.3571 18.4697 15.2165C18.6103 15.0758 18.8011 14.9968 19 14.9968C19.1989 14.9968 19.3897 15.0758 19.5303 15.2165C19.671 15.3571 19.75 15.5479 19.75 15.7468V17.9998C19.75 18.464 19.5656 18.9091 19.2374 19.2373C18.9092 19.5655 18.4641 19.7498 18 19.7498H6C5.53587 19.7498 5.09075 19.5655 4.76256 19.2373C4.43437 18.9091 4.25 18.464 4.25 17.9998V15.7468C4.25 15.5479 4.32902 15.3571 4.46967 15.2165C4.61032 15.0758 4.80109 14.9968 5 14.9968Z" fill="black"/>
<path fill-rule="evenodd" clip-rule="evenodd" d="M12.2019 5.57983C12.4008 5.57983 12.5916 5.65885 12.7322 5.7995C12.8729 5.94016 12.9519 6.13092 12.9519 6.32983V14.4158C12.9519 14.6147 12.8729 14.8055 12.7322 14.9462C12.5916 15.0868 12.4008 15.1658 12.2019 15.1658C12.003 15.1658 11.8122 15.0868 11.6716 14.9462C11.5309 14.8055 11.4519 14.6147 11.4519 14.4158V6.33083C11.4519 6.13192 11.5309 5.94116 11.6716 5.8005C11.8122 5.65985 12.003 5.57983 12.2019 5.57983Z" fill="black"/>
<path fill-rule="evenodd" clip-rule="evenodd" d="M11.6779 4.4639C11.818 4.32708 12.0061 4.25049 12.2019 4.25049C12.3978 4.25049 12.5858 4.32708 12.7259 4.4639L16.0699 7.7299C16.2093 7.86952 16.288 8.05841 16.2891 8.25566C16.2901 8.45291 16.2134 8.64264 16.0756 8.78375C15.9378 8.92487 15.7499 9.006 15.5527 9.00959C15.3555 9.01317 15.1648 8.93892 15.0219 8.8029L12.2019 6.0489L9.38193 8.8029C9.31178 8.87319 9.22838 8.92884 9.13656 8.96664C9.04473 9.00443 8.94632 9.02362 8.84702 9.02308C8.74773 9.02255 8.64953 9.0023 8.55812 8.96351C8.46671 8.92473 8.38391 8.86817 8.31453 8.79714C8.24515 8.7261 8.19056 8.64199 8.15394 8.5497C8.11732 8.4574 8.09939 8.35875 8.1012 8.25947C8.103 8.16019 8.1245 8.06225 8.16445 7.97135C8.20441 7.88044 8.26201 7.79837 8.33393 7.7299L11.6779 4.4639Z" fill="black"/>
</svg>
