<svg width="16" height="16" viewBox="0 0 16 16" fill="none" xmlns="http://www.w3.org/2000/svg">
<g clip-path="url(#clip0_849_322)">
<path d="M0.5 8C0.5 9.475 0.925 10.85 1.65 12H14.325C15.05 10.85 15.475 9.475 15.475 8C15.475 6.525 15.05 5.15 14.325 4H1.65C0.925 5.15 0.5 6.525 0.5 8Z" fill="#FFCE31"/>
<path d="M14.3499 4C13.0249 1.9 10.6749 0.5 7.9999 0.5C5.3249 0.5 2.9749 1.9 1.6499 4H14.3499ZM1.6499 12C2.9749 14.1 5.3249 15.5 7.9999 15.5C10.6749 15.5 13.0249 14.1 14.3499 12H1.6499Z" fill="#ED4C5C"/>
<path d="M2.30005 7.17499H3.10005V7.62499H2.30005V7.17499ZM2.30005 10.475H3.12505V10.9H2.30005V10.475Z" fill="#C8B100"/>
<path d="M2.2251 9.77499C2.1501 9.82499 2.1001 9.87499 2.1001 9.89999C2.1001 9.92499 2.1251 9.94999 2.1751 9.97499C2.2251 9.99999 2.2751 10.05 2.2501 10.1C2.3001 10.05 2.3251 9.99999 2.3251 9.94999C2.3251 9.87499 2.2751 9.79999 2.2251 9.77499Z" fill="#ED4C5C"/>
<path d="M2.42505 7.625H3.00005V10.475H2.42505V7.625Z" fill="white"/>
<path d="M3.59999 8.675C3.47499 8.625 3.24999 8.575 2.99999 8.575C2.92499 8.575 2.82499 8.575 2.72499 8.6C2.37499 8.65 2.09999 8.8 2.12499 8.9L1.99999 8.625C1.97499 8.5 2.27499 8.35 2.64999 8.275C2.77499 8.25 2.89999 8.25 2.99999 8.25C3.24999 8.25 3.47499 8.275 3.59999 8.325V8.675Z" fill="#ED4C5C"/>
<path d="M2.4249 9.05C2.2749 9.05 2.1499 9 2.1499 8.925C2.1499 8.875 2.1999 8.8 2.2999 8.75H2.4499L2.4249 9.05ZM2.9999 8.825C3.0999 8.85 3.1749 8.875 3.2249 8.9C3.2499 8.925 3.1499 9.025 2.9999 9.1V8.825Z" fill="#ED4C5C"/>
<path d="M2.04999 9.59999C2.02499 9.54999 2.19999 9.44999 2.42499 9.37499C2.52499 9.34999 2.59999 9.29999 2.72499 9.24999C3.02499 9.12499 3.27499 8.94999 3.22499 8.89999L3.27499 9.19999C3.29999 9.24999 3.09999 9.39999 2.79999 9.54999C2.69999 9.59999 2.52499 9.67499 2.42499 9.69999C2.24999 9.74999 2.09999 9.84999 2.09999 9.87499L2.04999 9.59999Z" fill="#ED4C5C"/>
<path d="M7.6749 7.17499H8.4749V7.62499H7.6749V7.17499ZM7.6499 10.475H8.4749V10.9H7.6499V10.475Z" fill="#C8B100"/>
<path d="M8.54995 9.77499C8.62495 9.82499 8.67495 9.87499 8.67495 9.89999C8.67495 9.92499 8.64995 9.94999 8.59995 9.97499C8.54995 10.025 8.49995 10.1 8.52495 10.125C8.47495 10.075 8.44995 10.025 8.44995 9.97499C8.44995 9.87499 8.49995 9.79999 8.54995 9.77499Z" fill="#ED4C5C"/>
<path d="M7.7749 7.625H8.3499V10.475H7.7749V7.625Z" fill="white"/>
<path d="M7.17505 8.675C7.30005 8.625 7.52505 8.575 7.77505 8.575C7.85005 8.575 7.95005 8.575 8.05005 8.6C8.40005 8.65 8.67505 8.8 8.65005 8.9L8.77505 8.6C8.80005 8.475 8.50005 8.325 8.12505 8.25H7.77505C7.52505 8.25 7.30005 8.275 7.17505 8.325V8.675Z" fill="#ED4C5C"/>
<path d="M8.34997 9.05C8.49997 9.05 8.62497 9 8.62497 8.925C8.62497 8.875 8.57497 8.8 8.47497 8.75H8.32497L8.34997 9.05ZM7.77497 8.825C7.67497 8.85 7.59997 8.875 7.54997 8.9C7.52497 8.925 7.62497 9.025 7.77497 9.1V8.825Z" fill="#ED4C5C"/>
<path d="M8.72495 9.60001C8.74995 9.55001 8.57495 9.45001 8.34995 9.37501C8.24995 9.35001 8.17495 9.30001 8.04995 9.25001C7.74995 9.12501 7.49995 8.95001 7.54995 8.90001L7.49995 9.20001C7.47495 9.25001 7.67495 9.40001 7.97495 9.55001C8.07495 9.60001 8.24995 9.67501 8.34995 9.70001C8.52495 9.75001 8.67495 9.87501 8.64995 9.90001L8.72495 9.60001ZM5.37495 5.57501C5.84995 5.57501 6.82495 5.67501 7.17495 6.02501C6.79995 6.92501 6.19995 6.55001 5.37495 6.55001C4.57495 6.55001 3.94995 6.92501 3.57495 6.02501C3.92495 5.67501 4.87495 5.57501 5.37495 5.57501Z" fill="#ED4C5C"/>
<path d="M6.59995 6.575C6.29995 6.4 5.84995 6.375 5.37495 6.375C4.89995 6.375 4.44995 6.425 4.14995 6.575L4.24995 7C4.52495 7.075 4.92495 7.125 5.37495 7.125C5.82495 7.125 6.19995 7.075 6.49995 7L6.59995 6.575ZM7.02495 5.5C6.92495 5.425 6.72495 5.35 6.54995 5.35C6.47495 5.35 6.39995 5.35 6.32495 5.375C6.32495 5.375 6.17495 5.175 5.82495 5.175C5.69995 5.175 5.59995 5.2 5.49995 5.25V5.225C5.47495 5.175 5.42495 5.125 5.37495 5.125C5.32495 5.125 5.24995 5.2 5.24995 5.25V5.275C5.14995 5.225 5.04995 5.2 4.92495 5.2C4.57495 5.2 4.42495 5.425 4.42495 5.4C4.34995 5.375 4.27495 5.375 4.19995 5.375C3.04995 5.375 3.62495 6.15 3.62495 6.15L3.74995 6C3.47495 5.65 3.72495 5.45 4.22495 5.45C4.29995 5.45 4.34995 5.45 4.39995 5.475C4.22495 5.725 4.54995 5.95 4.54995 5.95L4.62495 5.825C4.44995 5.7 4.42495 5.275 4.92495 5.275C5.04995 5.275 5.14995 5.3 5.24995 5.375C5.24995 5.4 5.22495 5.75 5.19995 5.8L5.39995 5.975L5.59995 5.8C5.57495 5.725 5.54995 5.4 5.54995 5.375C5.62495 5.325 5.74995 5.275 5.87495 5.275C6.39995 5.275 6.39995 5.7 6.17495 5.825L6.24995 5.95C6.24995 5.95 6.52495 5.725 6.39995 5.475C6.44995 5.475 6.52495 5.45 6.57495 5.45C7.17495 5.45 7.19995 5.9 7.04995 6L7.14995 6.15C7.09995 6.15 7.37495 5.8 7.02495 5.5Z" fill="#C8B100"/>
<path d="M5.2251 5.025C5.2251 4.95 5.3001 4.875 5.3751 4.875C5.4751 4.875 5.5251 4.95 5.5251 5.025C5.5251 5.1 5.4501 5.175 5.3751 5.175C5.3001 5.175 5.2251 5.1 5.2251 5.025Z" fill="#005BBF"/>
<path d="M5.3251 4.60001V4.67501H5.2501V4.75001H5.3251V5.00001H5.2251V5.07501H5.5251L5.5501 5.02501L5.5251 5.00001H5.4251V4.75001H5.5001V4.67501H5.4251V4.60001H5.3251Z" fill="#C8B100"/>
<path d="M5.3751 7.07501C4.9751 7.07501 4.6251 7.02501 4.3501 6.95001C4.6251 6.87501 4.9751 6.82501 5.3751 6.82501C5.7751 6.82501 6.1251 6.87501 6.4001 6.95001C6.1501 7.02501 5.7751 7.07501 5.3751 7.07501Z" fill="#ED4C5C"/>
<path d="M5.4001 11.4C4.9251 11.4 4.4751 11.275 4.0751 11.1C3.7751 10.95 3.6001 10.675 3.6001 10.35V9.14999H7.2001V10.35C7.2001 10.675 7.0001 10.975 6.7251 11.1C6.3251 11.3 5.8751 11.4 5.4001 11.4ZM5.3751 7.14999H7.1751V9.14999H5.3751V7.14999Z" fill="white"/>
<path d="M5.4001 10.35C5.4001 10.825 5.0001 11.2 4.5001 11.2C4.0001 11.2 3.6001 10.825 3.6001 10.35V9.14999H5.4001V10.35Z" fill="#ED4C5C"/>
<path d="M3.97495 11.05C4.02495 11.075 4.09995 11.125 4.19995 11.15V9.10001H3.99995L3.97495 11.05ZM3.57495 10.325C3.57495 10.575 3.67495 10.775 3.77495 10.875V9.10001H3.57495V10.325Z" fill="#C8B100"/>
<path d="M4.375 11.2H4.575V9.10001H4.375V11.2Z" fill="#C7B500"/>
<path d="M4.7749 11.15C4.8499 11.125 4.9499 11.075 4.9999 11.05V9.10001H4.7999L4.7749 11.15Z" fill="#C8B100"/>
<path d="M3.57495 7.14999H5.37495V9.14999H3.57495V7.14999Z" fill="#ED4C5C"/>
<path d="M5.19995 10.875C5.29995 10.8 5.37495 10.625 5.39995 10.425V9.125H5.19995V10.875Z" fill="#C8B100"/>
<path d="M7.2001 9.15V10.35C7.2001 10.825 6.8001 11.2 6.3001 11.2C5.8001 11.2 5.4001 10.825 5.4001 10.35V9.15H7.2001ZM6.5501 7.5C6.6251 7.65 6.6251 8.025 6.4001 7.95C6.4501 7.975 6.4751 8.15 6.5501 8.25C6.6751 8.4 6.8251 8.275 6.8001 8.1C6.7501 7.825 6.7751 7.65 6.8251 7.375C6.8251 7.4 6.9501 7.4 7.0001 7.35C6.9751 7.425 6.9501 7.525 7.0001 7.525C6.9501 7.6 6.8251 7.725 6.8001 7.8C6.7751 7.975 7.0501 8.3 6.7501 8.375C6.5501 8.425 6.6751 8.575 6.7501 8.65C6.7501 8.65 6.6501 8.975 6.7001 8.95C6.5001 9.025 6.5501 8.85 6.5501 8.85C6.6501 8.55 6.3751 8.525 6.4001 8.475C6.1501 8.45 6.4251 8.7 6.2001 8.7C6.1501 8.7 6.0501 8.75 6.0501 8.75C5.7751 8.725 5.9251 8.475 6.0251 8.5C6.1001 8.525 6.1751 8.65 6.1751 8.475C6.1751 8.475 6.0501 8.275 6.3751 8.275C6.2501 8.275 6.1751 8.175 6.1251 8.05C6.0751 8.075 6.0001 8.2 5.7251 8.225C5.7251 8.225 5.6501 7.95 5.7251 8C5.8251 8.05 5.8751 8.05 5.9751 7.95C5.9251 7.875 5.6251 7.775 5.6751 7.6C5.6751 7.55 5.8251 7.475 5.8251 7.475C5.8001 7.6 5.8751 7.725 6.0251 7.725C6.2251 7.75 6.1501 7.675 6.1751 7.625C6.2001 7.575 6.3501 7.65 6.3001 7.525C6.3001 7.5 6.1251 7.475 6.1751 7.4C6.2751 7.275 6.4251 7.375 6.5501 7.5ZM5.4001 11.15L5.3501 11.025L5.4001 10.875L5.4501 11.025L5.4001 11.15Z" fill="#ED4C5C"/>
<path d="M4.1251 7.575V7.7H4.1751V7.8H4.0501V8.05H4.1251V8.6H3.9751V8.875H5.0001V8.6H4.8751V8.05H4.9251V7.8H4.8001V7.7H4.8751V7.575H4.6251V7.7H4.6751V7.8H4.5501V7.5H4.6251V7.375H4.3501V7.5H4.4251V7.8H4.3001V7.7H4.3501V7.575H4.1251ZM6.9501 10.65V9.4H5.6501V10.65L6.2501 10.925H6.3251L6.9501 10.65ZM6.2501 9.5V9.925L5.8251 9.5H6.2501ZM5.7251 9.525L6.2251 10.025L5.7251 10.525V9.525ZM5.7751 10.625L6.2501 10.15V10.85L5.7751 10.625ZM6.3251 10.825V10.125L6.8001 10.6L6.3251 10.825ZM6.8501 10.525L6.3501 10.025L6.8501 9.525V10.525ZM6.3251 9.5H6.7501L6.3251 9.925V9.5Z" fill="#C8B100"/>
<path d="M4.80005 9.12501C4.80005 8.75001 5.05005 8.47501 5.37505 8.47501C5.70005 8.47501 5.95005 8.77501 5.95005 9.12501C5.95005 9.47501 5.70005 9.77501 5.37505 9.77501C5.05005 9.77501 4.80005 9.50001 4.80005 9.12501Z" fill="#ED4C5C"/>
<path d="M4.9751 9.12499C4.9751 8.84999 5.1501 8.64999 5.3751 8.64999C5.6001 8.64999 5.7751 8.87499 5.7751 9.12499C5.7751 9.39999 5.6001 9.59999 5.3751 9.59999C5.1751 9.62499 4.9751 9.39999 4.9751 9.12499Z" fill="#005BBF"/>
<path d="M5.2001 8.79999L5.1001 9.07499L5.1751 9.09999L5.1251 9.19999H5.2751L5.2251 9.09999L5.3001 9.07499L5.2001 8.79999ZM5.5751 8.79999L5.4751 9.07499L5.5501 9.09999L5.5001 9.19999H5.6501L5.6251 9.09999L5.7001 9.07499L5.5751 8.79999ZM5.4001 9.12499L5.2751 9.39999L5.3501 9.42499L5.3251 9.52499H5.4501L5.4251 9.42499L5.5001 9.39999L5.4001 9.12499Z" fill="#C8B100"/>
</g>
<defs>
<clipPath id="clip0_849_322">
<rect width="16" height="16" fill="white"/>
</clipPath>
</defs>
</svg>
