<svg width="24" height="24" viewBox="0 0 24 24" fill="none" xmlns="http://www.w3.org/2000/svg">
<path d="M18 3C16.3 3 15 4.3 15 6C15 7.7 16.3 9 18 9C19.7 9 21 7.7 21 6C21 4.3 19.7 3 18 3ZM18 7C17.4 7 17 6.6 17 6C17 5.4 17.4 5 18 5C18.6 5 19 5.4 19 6C19 6.6 18.6 7 18 7ZM4 14.4C4.4 14.4 4.6 14.5 5 14.8C5.5 15.2 6.1 15.7 7.2 15.7C8.3 15.7 9 15.2 9.4 14.8C9.7 14.5 9.9 14.4 10.4 14.4C10.8 14.4 11 14.5 11.4 14.8C11.9 15.2 12.5 15.7 13.6 15.7C14.8 15.7 15.4 15.2 15.8 14.8C16.2 14.5 16.3 14.4 16.8 14.4C17.3 14.4 17.4 14.5 17.8 14.8C18.3 15.2 18.9 15.7 20 15.7C20.6 15.7 21 15.3 21 14.7C21 14.1 20.6 13.7 20 13.7C19.5 13.7 19.4 13.6 19 13.3C18.5 12.9 17.9 12.4 16.8 12.4C15.6 12.4 15 12.9 14.6 13.3C14.2 13.6 14.1 13.7 13.6 13.7C13.4 13.7 13.3 13.7 13.2 13.6L16.7 10.8C17 10.6 17.1 10.2 17.1 9.9C17.1 9.6 16.8 9.3 16.5 9.1L11.5 7.1C11.2 7 10.8 7 10.6 7.2L7.6 9.2C7 9.5 6.9 10.1 7.2 10.6C7.5 11.1 8.1 11.2 8.6 10.9L11.2 9.2L14.1 10.4L11.4 12.6C11.1 12.5 10.9 12.5 10.5 12.5C9.3 12.5 8.7 13 8.3 13.4C8 13.7 7.8 13.8 7.3 13.8C6.8 13.8 6.7 13.7 6.3 13.4C5.8 13 5.2 12.5 4.1 12.5C3.5 12.5 3.1 12.9 3.1 13.5C3.1 14.1 3.4 14.4 4 14.4ZM4 18.4C4.4 18.4 4.6 18.5 5 18.8C5.5 19.2 6.1 19.7 7.2 19.7C8.3 19.7 9 19.2 9.4 18.8C9.7 18.5 9.9 18.4 10.4 18.4C10.8 18.4 11 18.5 11.4 18.8C11.9 19.2 12.5 19.7 13.6 19.7C14.8 19.7 15.4 19.2 15.8 18.8C16.2 18.5 16.3 18.4 16.8 18.4C17.3 18.4 17.4 18.5 17.8 18.8C18.3 19.2 18.9 19.7 20 19.7C20.6 19.7 21 19.3 21 18.7C21 18.1 20.6 17.7 20 17.7C19.5 17.7 19.4 17.6 19 17.3C18.5 16.9 17.9 16.4 16.8 16.4C15.6 16.4 15 16.9 14.6 17.3C14.2 17.6 14.1 17.7 13.6 17.7C13.2 17.7 13 17.6 12.6 17.3C12.1 16.9 11.5 16.4 10.4 16.4C9.3 16.4 8.6 16.9 8.2 17.3C7.9 17.6 7.7 17.7 7.2 17.7C6.7 17.7 6.6 17.6 6.2 17.3C5.7 16.9 5.1 16.4 4 16.4C3.4 16.4 3 16.8 3 17.4C3 18 3.4 18.4 4 18.4Z" fill="#6BBCFF"/>
</svg>
