<svg width="100%" height="100%" id="svg" viewBox="0 0 1440 590" xmlns="http://www.w3.org/2000/svg" class="transition duration-300 ease-in-out delay-150"><defs><linearGradient id="gradient" x1="0%" y1="50%" x2="100%" y2="50%"><stop offset="5%" stop-color="#0f426c"></stop><stop offset="95%" stop-color="#1462a2"></stop></linearGradient></defs><path d="M 0,600 L 0,150 C 74.49948471315699,193.12744761250428 148.99896942631398,236.2548952250086 220,211 C 291.001030573686,185.7451047749914 358.503607007901,92.10786671246993 416,87 C 473.496392992099,81.89213328753007 520.9866025420819,165.31363792511166 591,182 C 661.0133974579181,198.68636207488834 753.5499828237718,148.63758158708345 834,124 C 914.4500171762282,99.36241841291654 982.8134661628308,100.13603572655447 1046,114 C 1109.1865338371692,127.86396427344553 1167.1961525249055,154.8182755066987 1232,163 C 1296.8038474750945,171.1817244933013 1368.4019237375473,160.59086224665066 1440,150 L 1440,600 L 0,600 Z" stroke="none" stroke-width="0" fill="url(#gradient)" fill-opacity="0.53" class="transition-all duration-300 ease-in-out delay-150 path-0"></path><defs><linearGradient id="gradient" x1="0%" y1="50%" x2="100%" y2="50%"><stop offset="5%" stop-color="#0f426c"></stop><stop offset="95%" stop-color="#1462a2"></stop></linearGradient></defs><path d="M 0,600 L 0,350 C 80.50910340089317,363.6894537959464 161.01820680178633,377.37890759189287 224,357 C 286.98179319821367,336.62109240810713 332.4362761937478,282.17382342837504 400,288 C 467.5637238062522,293.82617657162496 557.2366884232223,359.92579869460667 632,384 C 706.7633115767777,408.07420130539333 766.6169701133631,390.12298179319816 827,380 C 887.3830298866369,369.87701820680184 948.2954311233254,367.58227413260056 1018,362 C 1087.7045688766746,356.41772586739944 1166.2013053933356,347.5479216763998 1238,345 C 1309.7986946066644,342.4520783236002 1374.8993473033322,346.2260391618001 1440,350 L 1440,600 L 0,600 Z" stroke="none" stroke-width="0" fill="url(#gradient)" fill-opacity="1" class="transition-all duration-300 ease-in-out delay-150 path-1"></path></svg>