<svg width="393" height="348" viewBox="0 0 393 348" fill="none" xmlns="http://www.w3.org/2000/svg">
<path fill-rule="evenodd" clip-rule="evenodd" d="M165.822 1.18157C272.893 10.2252 319.604 78.0743 406.538 112.656C485.267 143.974 602.016 148.939 651.268 194.289C701.429 240.476 691.608 299.509 665.434 351.04C640.972 399.199 574.739 435.948 510.192 472.03C448.484 506.525 383.996 540.293 299.415 555.645C212.704 571.383 118.881 571.572 30.3129 559.13C-59.9263 546.453 -139.37 519.629 -205.85 484.663C-276.443 447.534 -331.611 403.632 -361.308 353.152C-394.842 296.151 -430.73 232.864 -386.235 178.044C-341.581 123.029 -225.651 98.2387 -129.367 67.392C-35.9575 37.4663 58.2299 -7.90599 165.822 1.18157Z" fill="#73ADDE"/>
<path fill-rule="evenodd" clip-rule="evenodd" d="M293.685 1.44576C398.114 12.5114 443.671 95.5311 528.46 137.845C605.246 176.166 719.113 182.241 767.15 237.731C816.073 294.244 806.494 366.477 780.966 429.529C757.108 488.457 692.509 533.423 629.556 577.572C569.371 619.779 506.474 661.098 423.98 679.882C339.41 699.139 247.902 699.371 161.52 684.147C73.5078 668.635 -3.97538 635.813 -68.8141 593.03C-137.665 547.599 -191.471 493.881 -220.436 432.114C-253.142 362.368 -288.144 284.931 -244.747 217.854C-201.195 150.538 -88.1269 120.204 5.7811 82.4603C96.8851 45.8435 188.748 -9.6737 293.685 1.44576Z" fill="#3C80B9"/>
</svg>
